<?xml version="1.0" encoding="UTF-8"?>
<svg xmlns="http://www.w3.org/2000/svg" width="920" height="340" viewBox="0 0 920 340">
  <rect width="100%" height="100%" fill="#fafafa"/>
  <text x="460" y="28" text-anchor="middle" font-family="system-ui,sans-serif" font-size="15" font-weight="600">
    ibm01_2000_nol - |sur_raw_cong - px_raw_cong|
  </text>
  <text x="460" y="326" text-anchor="middle" font-family="system-ui,sans-serif" font-size="12" fill="#444">
    Source: submissions/logs/ibm01_2000_nol.txt
  </text>
  <text transform="translate(22,182) rotate(-90)" text-anchor="middle" font-family="system-ui,sans-serif" font-size="12" fill="#444">
    |sur_cong - px_cong|
  </text>
  <polyline fill="none" stroke="#c62828" stroke-width="1.5" points="72.00,48.69 80.28,65.01 88.57,83.73 96.85,99.84 105.13,121.83 113.41,136.50 121.70,158.64 129.98,158.02 138.26,167.97 146.55,171.96 154.83,178.68 163.11,185.03 171.39,186.21 179.68,185.64 187.96,190.40 196.24,194.59 204.53,198.67 212.81,203.07 221.09,201.19 229.37,207.95 237.66,209.58 245.94,215.08 254.22,221.39 262.51,231.81 270.79,234.60 279.07,236.90 287.35,240.44 295.64,233.59 303.92,235.53 312.20,234.29 320.48,230.45 328.77,230.93 337.05,232.95 345.33,234.54 353.62,238.14 361.90,237.88 370.18,239.73 378.46,241.08 386.75,244.22 395.03,244.12 403.31,247.55 411.60,249.10 419.88,253.94 428.16,254.17 436.44,258.04 444.73,259.69 453.01,261.09 461.29,261.67 469.58,261.58 477.86,263.37 486.14,261.66 494.42,263.32 502.71,263.06 510.99,262.30 519.27,263.71 527.56,267.17 535.84,263.52 544.12,260.38 552.40,261.48 560.69,264.03 568.97,265.30 577.25,268.84 585.54,268.77 593.82,266.80 602.10,267.38 610.38,268.52 618.67,265.16 626.95,264.60 635.23,264.13 643.52,266.50 651.80,265.84 660.08,266.03 668.36,266.24 676.65,271.97 684.93,276.16 693.21,273.09 701.49,276.40 709.78,274.63 718.06,268.37 726.34,270.19 734.63,274.09 742.91,274.37 751.19,269.15 759.47,273.08 767.76,271.03 776.04,273.55 784.32,273.02 792.61,271.59 800.89,268.49 809.17,268.65 817.45,267.21 825.74,273.33 834.02,275.41 842.30,274.87 850.59,281.89 858.87,280.50 867.15,283.31 875.43,280.98 883.72,282.57 892.00,280.83" />
  <g stroke="#ccc" stroke-width="1">
    <line x1="72" y1="288" x2="892" y2="288" />
    <line x1="72" y1="44" x2="72" y2="288" />
  </g>
  <text x="72" y="312" font-family="system-ui,monospace" font-size="11" fill="#666">19</text>
  <text x="892" y="312" text-anchor="end" font-family="system-ui,monospace" font-size="11" fill="#666">1999</text>
  <text x="66" y="48" text-anchor="end" font-family="system-ui,monospace" font-size="10" fill="#666">0.365</text>
  <text x="66" y="292" text-anchor="end" font-family="system-ui,monospace" font-size="10" fill="#666">0.132</text>
</svg>
